<svg id="logo" xmlns="http://www.w3.org/2000/svg" width="128.719" height="35.688" viewBox="0 0 128.719 35.688">
  <defs>
    <style>
      .cls-1, .cls-4 {
        fill-rule: evenodd;
      }

      .cls-2 {
        fill: #f1f400;
      }

      .cls-3 {
        fill: #f4cf00;
      }

      .cls-4 {
        fill: #f4bd00;
      }
    </style>
  </defs>
  <path id="MOVIES" class="cls-1" d="M236.709,19.558H233V44.693h3.36l-0.35-16.453,2.52,11.9h2.59l2.52-11.9-0.35,16.453h3.36V19.558h-3.71l-3.115,14.773Zm20.124,25.135q4.06,0,4.06-4.271V23.864q0-4.306-4.025-4.306h-3.22q-4.024,0-4.025,4.306V40.422q0,4.271,4.06,4.271h3.15Zm-3.85-4.516v-16.1a1.3,1.3,0,0,1,1.47-1.47h1.575a1.315,1.315,0,0,1,1.5,1.47v16.1a1.241,1.241,0,0,1-1.33,1.47h-1.715a1.315,1.315,0,0,1-1.5-1.47h0Zm18.445-20.619L268.7,38.741l-2.73-19.183h-3.325l4.06,25.135h3.99l4.06-25.135h-3.325Zm8.61,25.135V19.558h-3.36V44.693h3.36Zm11.48,0V41.647h-4.97V33.281h4.41V30.235h-4.41V22.6h4.97V19.558h-8.33V44.693h8.33Zm12.214-18.378v-2.45q0-4.306-4.025-4.306h-2.1q-4.025,0-4.025,4.306V29.01a5.012,5.012,0,0,0,.21,1.593,2.159,2.159,0,0,0,.683,1,9.992,9.992,0,0,0,1.522.945l3.185,1.785a7.2,7.2,0,0,1,.91.63,1.234,1.234,0,0,1,.28.945v4.271a1.241,1.241,0,0,1-1.33,1.47h-0.595a1.315,1.315,0,0,1-1.5-1.47V38.811h-3.36v1.26q0,4.621,4.025,4.621h2.065q4.06,0,4.06-4.236V35.1a4.443,4.443,0,0,0-.245-1.8,2.382,2.382,0,0,0-.682-0.805,14.806,14.806,0,0,0-1.488-.928l-3.185-1.715a7.069,7.069,0,0,1-.91-0.63,1.232,1.232,0,0,1-.28-0.945V24.109a1.3,1.3,0,0,1,1.435-1.505H298.9a1.315,1.315,0,0,1,1.47,1.505v2.206h3.36Z" transform="translate(-175 -10.969)"/>
  <circle id="Elipse_3_copia_2" data-name="Elipse 3 copia 2" class="cls-2" cx="43.75" cy="29.859" r="3.656"/>
  <circle id="Elipse_3_copia" data-name="Elipse 3 copia" class="cls-3" cx="43.75" cy="20.766" r="3.656"/>
  <path id="Elipse_3" data-name="Elipse 3" class="cls-4" d="M218.75,18.962A3.658,3.658,0,1,1,215.1,22.62,3.652,3.652,0,0,1,218.75,18.962Z" transform="translate(-175 -10.969)"/>
  <path id="Forma_1" data-name="Forma 1" class="cls-1" d="M204.227,42.777c-6.76,4.432-13.184,5.174-19.822,1.754A17.848,17.848,0,0,1,193.5,10.96c8.5,0.406,15.983,6.5,16.852,14.688,0.662,6.236.265,12.594,0.182,18.9-0.027,2.02-2.12,2.74-3.748,1.329A23.6,23.6,0,0,1,204.227,42.777ZM179.587,29a13.2,13.2,0,0,0,13.4,13.295A13.428,13.428,0,1,0,179.587,29Z" transform="translate(-175 -10.969)"/>
</svg>
